<svg version="1.2" xmlns="http://www.w3.org/2000/svg" viewBox="0 0 2580 1033" width="2580" height="1033"><defs><linearGradient id="P" gradientUnits="userSpaceOnUse"/><linearGradient id="g1" x1="1785.2" y1="607.9" x2="871.6" y2="122.1" href="#P"><stop stop-color="#4d4d4d"/><stop offset="1"/></linearGradient><linearGradient id="g2" x1="1719.8" y1="538.3" x2="-40" y2="99.5" href="#P"><stop stop-color="#ff2680"/><stop offset=".2" stop-color="#ff8e00"/><stop offset=".42" stop-color="#ffe517"/><stop offset=".61" stop-color="#a3e60d"/><stop offset=".81" stop-color="#17bfff"/><stop offset="1" stop-color="#9673ff"/></linearGradient></defs><style>.a{fill:url(#g1)}.b{fill:url(#g2)}.c{fill:#404040}</style><path class="a" d="m2074.8 739.8c-113.4-149.9-243.7-252.5-309.7-302.3-459.5-346.8-1132-194.6-1132-194.6 0 0 753.8 23.9 1044.4 203.4 32.9 20.3 74.7 25.8 99.1 51.6 17.4 18.5 46.8 48.1 103.1 129.6 0 0 126.3 55.6 195.1 112.3z"/><path class="b" d="m65.1 143.7c0.6 0 4.1 2.4 9.8 6.4 51.4 36 126.1 46.6 225.9 32 31.8-4.7 90.3-16.7 123.4-25.5 52.5-14 77.3-21.1 186.6-54 42.2-12.7 79.4-23.7 82.8-24.3 16.5-3.4 117.8 35.7 168.7 65.1 22.7 13.1-56.3-42.9-90.8-64.4-21.7-13.5-23.5-15-19.3-15.9 2.6-0.5 18-4.3 34.3-8.4 106.9-26.9 233-42.6 316.3-39.3 3.3 0.2 6.8 0 7.8-0.4 2.5-0.9 25.3 7 51.4 17.9 36.3 15.3 86.8 43.7 119.2 67.1 7.4 5.3 13.5 9.3 13.7 8.9 0.5-1.1-63-57.1-82.1-72.4-9.2-7.4-16.6-13.9-16.4-14.3 0.2-0.5 11.7 1 25.4 3.3 126 20.6 234.1 66 326.8 137.3 17.5 13.4 52 44.2 67 59.7 7.3 7.7 14.6 15.2 16 16.7 3.7 3.6 22.7 25.4 28.6 32.7 33.8 41.3 64.7 88.4 92.7 141l11.1 21 1.4 4.1c-59-41.8-120.6-75.9-191.6-107-122.7-53.7-246.1-86.2-398.3-104.9-95.8-11.8-186-14.4-285.1-8.3-58.1 3.5-198.6 17-199.5 19-0.2 0.6 1.8 0.8 4.4 0.4 8.8-1 118.8-4.7 159.6-5.3 78-1.1 142.9 0.2 202.1 4 8.9 0.6 16.6 0.9 17 0.8 1.5-0.6 83.3 7.5 109.6 10.9 221.3 28.1 406.8 103.2 570.6 231.1 7.9 6.1 15.9 12.9 24 20l-41.6 7.2c-42.6 6.6-133.3 17.6-175.8 21.4-160.4 14.2-271.5 7.4-362.8-22-21.5-7-69.2-28.3-85.7-38.4-5.5-3.3-17.8-10.8-27.3-16.5l-17.3-10.5 10.1-4.5c12.2-5.4 43.9-14.6 74.4-21.5 44.4-9.9 81.9-14.6 126.6-15.7 10.3-0.3 18.8-0.8 19-1.2 0.5-1.2-85.7-8.9-108.6-9.8-35.6-1.3-78.3-0.7-110.6 1.7-30.7 2.3-72 7.1-76.8 8.9-1.4 0.5-9.7-3.2-18.5-8.3-32.5-18.9-78.3-37.6-123.1-50.2-99.7-28.1-160.9-29.6-300.8-7.6-46.9 7.4-79.8 11.3-104.6 12.3-17.2 0.8-18.3 0.6-13.8-2.3 13-8.3 52-25.6 79.1-35.3 16.6-5.8 29-10.5 27.5-10.3-21 2.9-96.7 20.7-130.9 30.9-47.7 14.2-42.3 13.5-64.3 8.5-84.6-19-167.2-71.2-261.9-165.4-19.2-19.1-26.4-26.2-25.4-26.4"/><path fill-rule="evenodd" class="c" d="m589.3 797.7l-6.4-1c-6.9-1.4-10.8-1.6-15.6-1.6v127.1c42.1 0 69.4-1 73.4-44l31.5 2.7-6.9 78.4c0 0-87.4-5.3-108.6-5.3h-62.8l-1.3-34.7 6.4 1.1c6.9 1 10.6 1.8 15.3 1.8v-127.1c-4.7 0-8.7 0.2-15.6 1.6l-6.4 1 1.4-34.7 47.1 0.8 47.2-0.8zm147.5-64.9c14 0 22.5 11.7 22.5 22.5 0 14.1-11.7 22.6-22.5 22.6-14.1 0-22.5-11.7-22.5-22.6 0-14 11.6-22.5 22.5-22.5zm26.4 94.1v95.3c4.8 0 13.8-0.2 20.7-1.6l6.4-1-0.6 34.7-52.9-0.8-53 0.8-0.5-34.7 6.3 1c6.9 1.4 15.9 1.6 20.7 1.6v-95.3c-4.8 0-13.8 0.2-20.7 1.5l-6.3 1.1 0.5-34.7 47.7 0.8 34.4-0.8c0 7.2-2.7 21.5-2.7 32.1zm182.8 21.2h-31.3c0-14.1-18.5-26.5-36.3-26.5-17.2 0-26.4 3.9-26.4 11.6 0 27.8 107.2 15.1 107.2 77.1 0 30.2-27.8 46.3-79.4 46.3-15.7 0-35-6.3-48-17.2l-0.8 17.2-30.7 0.6v-61.5h34.2c2.1 21.2 23.3 31.8 45.3 31.8 19 0 29.1-4.2 29.1-11.9 0-26.5-103.3-14.6-103.3-77.1 0-29.9 26-46.1 74.2-46.1 13.5 0 26.2 4 37.3 11.9l0.5-11.9 28.4-0.5zm97.7-52.7l37.3-0.5-2.1 33.3-3.7-0.2c-6.9-0.6-26.5-1.1-31.2-1.1v74.2c0 16.4 17.4 19 28.6 19l0.8 31.8c-7.2 2.7-18 4.8-30 4.8-24.6 0-52.4-9.5-52.4-44v-85.8c-4.8 0-16.4 0.5-23.3 1.1l-6.4 0.5 0.6-33.6 32 0.5 7.7-32.1h41.6zm208.7 66.5c0 6.4-0.8 14.1-2.2 20.7l-110.7-2.7c1.6 29.2 16.2 45.1 42.1 45.1 21.5 0 35.8-12.5 44.5-24.7l27.6 16.2c-15.9 22.8-41.9 40.2-77.3 40.2-58.6 0-90.1-28.6-90.1-82.1 0-53.5 30.7-82.1 87.4-82.1 45.8 0 78.7 24.7 78.7 69.4zm-111-8.5h59.8c0.3-2.1 0.3-3.9 0.3-5.8 0-22.5-13.2-25.9-27.8-25.9-16.9 0-28.1 11.6-32.3 31.7zm294.2 12h-30.2c-3.1-19.9-11.9-25.5-19.3-25.5-5 0-9.5 2.4-11.7 4.5l-31.2 30.5v47.4c4.8 0 8.5-0.5 15.4-1.3l6.3-0.8-0.5 34.2-47.7-0.8-53 0.8-0.5-34.7 6.4 1c6.9 1.3 15.9 1.6 20.6 1.6v-95.3c-4.7 0-13.7 0.2-20.6 1.5l-6.4 1.1 0.5-34.7 47.7 0.3c20.7 0 31.8 11.4 31.8 31.8v16.1l26.2-34.7c10.1-13 20.4-18.8 30.2-18.8 15.4 0 25.2 1.1 36 3.2zm21.7 94c-13.2 0-21.1-10.8-21.1-21.2 0-13.2 10.8-21.2 21.1-21.2 13.3 0 21.2 10.9 21.2 21.2 0 13.3-10.8 21.2-21.2 21.2zm113.6-197.8c0.6 0 36.1-0.8 36.6-0.8 53.8 0 77.6 55.8 77.6 98 0 42.1-23.8 98-77.6 98-0.5 0-36-0.8-36.6-0.8l-81.8-1.9-0.5-34.7 6.9 1.6c6.9 1.3 15.3 1.9 20.1 1.9v-128.2c-4.8 0-13.2 0.5-20.1 1.8l-6.9 1.6 0.5-34.7zm-2.4 162.4l10.6 0.2c34.5 0 53-22.7 53-65.4 0-42.6-18.5-65.4-53-65.4l-10.6 0.3zm295.3-62c0 6.3-0.8 14-2.1 20.6l-110.7-2.6c1.6 29.1 16.2 45 42.1 45 21.5 0 35.8-12.4 44.5-24.6l27.5 16.1c-15.8 22.8-41.8 40.3-77.3 40.3-58.5 0-90-28.6-90-82.1 0-53.5 30.7-82.1 87.4-82.1 45.8 0 78.6 24.6 78.6 69.4zm-110.9-8.5h59.8c0.3-2.1 0.3-4 0.3-5.8 0-22.5-13.3-26-27.8-26-17 0-28.1 11.7-32.3 31.8zm268-5.3h-31.3c0-14-18.5-26.5-36.3-26.5-17.2 0-26.5 4-26.5 11.7 0 27.8 107.3 15.1 107.3 77.1 0 30.1-27.8 46.3-79.4 46.3-15.7 0-35-6.4-48-17.2l-0.8 17.2-30.7 0.5v-61.4h34.2c2.1 21.2 23.3 31.8 45.3 31.8 19 0 29.1-4.3 29.1-12 0-26.4-103.3-14.5-103.3-77 0-30 26-46.1 74.2-46.1 13.5 0 26.2 4 37.3 11.9l0.5-11.9 28.4-0.5zm76.8-115.3c14 0 22.5 11.7 22.5 22.5 0 14.1-11.7 22.6-22.5 22.6-14.1 0-22.5-11.7-22.5-22.6 0-14 11.6-22.5 22.5-22.5zm26.4 94.1v95.3c4.8 0 13.8-0.2 20.7-1.6l6.4-1-0.6 34.7-52.9-0.8-53 0.8-0.5-34.7 6.3 1c6.9 1.4 15.9 1.6 20.7 1.6v-95.3c-4.8 0-13.8 0.2-20.7 1.6l-6.3 1 0.5-34.7 47.7 0.8 34.4-0.8c0 7.2-2.7 21.5-2.7 32.1zm74.5 79.2c0 9.2 7.1 14.3 20.4 14.3 23 0 51.6-10.4 70.9-10.4 31.8 0 46.1 18.3 46.1 52.2 0 41.3-38.9 55.4-87.6 55.4-45.1 0-90.4-14.6-90.4-31.8l13-40.5c-4.5-4-7.4-9-7.4-14.3 0-13.6 9-31 18.5-45.1-13.2-8.4-20.9-21.4-20.9-39.2 0-35.2 29.9-54.3 75.5-54.3 19.6 0 36 3.7 48.5 11.2 5.8-8.3 15.6-12.8 26.7-12.8 2.9 0 5.8 0.6 8.8 1.1l12.7 2.4-1.9 27.5-9.3-2.6c-3.7-1.1-6.8-1.6-9.2-1.6-6.1 0-9 3.4-9 5.3 3.4 6.9 5.5 14.8 5.5 23.8 0 35.3-28.8 51.7-72.8 51.7-13 0-24.9-1.3-35-4-2.1 4.2-3.1 8-3.1 11.7zm7.6-59.4c0 18 10.6 27.8 30.5 27.8 18 0 27.8-9.8 27.8-27.8 0-16.4-9.8-25.1-27.8-25.1-19.9 0-30.5 8.7-30.5 25.1zm-16.4 115.2c0.3 19.4 40.8 33.2 77.1 33.2 16.4 0 34.9-8.5 34.9-18.3 0-14.3-23-22.5-57.2-22.5-21.7 0-34.4-1.1-50-1.1-1.9 0-2.9 0-5-0.3zm222.7-148.3l66.5-21.2c42.6 0 58.2 17.5 58.2 64.9v64.9c4.8 0 13.8-0.3 20.7-1.6l6.3-1-0.5 34.7-53-0.8-47.6 0.8-0.6-34.2 6.4 0.8c6.9 0.8 10.6 1.3 15.4 1.3v-47.1c0-36.6-8-50.1-29.2-50.1l-34.4 10.1v87.1c4.8 0 8.5-0.5 15.4-1.3l6.3-0.8-0.5 34.2-47.7-0.8-53 0.8-0.5-34.7 6.4 1c6.9 1.3 15.9 1.6 20.6 1.6v-95.3c-4.7 0-13.7 0.2-20.6 1.5l-6.4 1.1 0.5-34.4 58.3-2.7z"/></svg>